<?xml version="1.0" encoding="UTF-8" standalone="no"?>
<!DOCTYPE svg PUBLIC "-//W3C//DTD SVG 1.1//EN" "http://www.w3.org/Graphics/SVG/1.1/DTD/svg11.dtd">
<svg width="100%" height="100%" viewBox="0 0 1457 215" version="1.1" xmlns="http://www.w3.org/2000/svg" xmlns:xlink="http://www.w3.org/1999/xlink" xml:space="preserve" xmlns:serif="http://www.serif.com/" style="fill-rule:evenodd;clip-rule:evenodd;stroke-linejoin:round;stroke-miterlimit:2;">
    <g transform="matrix(1,0,0,1,-51.4719,-213.854)">
        <g>
            <g transform="matrix(0.61704,0.786931,-0.786931,0.61704,1301.26,-152.293)">
                <g transform="matrix(3.57253,0,0,3.57253,177.746,48.0898)">
                    <path d="M106.919,49.998C106.72,50.622 105.786,50.887 104.847,50.586L48.567,32.582C47.626,32.282 47.021,31.525 47.22,30.901L48.223,27.766C48.423,27.142 49.354,26.879 50.294,27.18L106.575,45.184C107.515,45.485 108.122,46.239 107.921,46.864L106.919,49.998Z" style="fill:rgb(180,179,180);fill-rule:nonzero;"/>
                </g>
                <g transform="matrix(3.57253,0,0,3.57253,177.746,48.0898)">
                    <path d="M67.872,32.801L66.142,38.205L89.071,45.538L69.141,33.207L67.872,32.801Z" style="fill:rgb(153,153,153);fill-rule:nonzero;"/>
                </g>
                <g transform="matrix(3.57253,0,0,3.57253,177.746,48.0898)">
                    <path d="M67.703,37.616C67.375,38.641 66.267,39.211 65.241,38.883L52.735,34.883C51.71,34.554 51.139,33.448 51.467,32.421L52.564,28.992C52.891,27.966 53.999,27.396 55.024,27.724L67.532,31.725C68.557,32.053 69.127,33.161 68.799,34.186L67.703,37.616Z" style="fill:rgb(102,103,103);fill-rule:nonzero;"/>
                </g>
                <g transform="matrix(3.57253,0,0,3.57253,177.746,48.0898)">
                    <path d="M86.342,43.578C86.014,44.604 86.585,45.711 87.61,46.04L100.118,50.04C101.144,50.369 102.251,49.797 102.579,48.772L103.675,45.342C104.003,44.317 103.435,43.209 102.407,42.881L89.899,38.881C88.874,38.553 87.766,39.123 87.438,40.149L86.342,43.578Z" style="fill:rgb(102,103,103);fill-rule:nonzero;"/>
                </g>
                <g transform="matrix(3.57253,0,0,3.57253,177.746,48.0898)">
                    <path d="M62.866,48.448C62.395,49.92 60.782,50.719 59.264,50.234L58.807,50.087C57.29,49.602 56.441,48.016 56.913,46.543L65.195,20.652C65.667,19.179 67.278,18.379 68.795,18.865L69.252,19.011C70.77,19.497 71.62,21.083 71.148,22.556L62.866,48.448Z" style="fill:rgb(51,51,51);fill-rule:nonzero;"/>
                </g>
                <g transform="matrix(3.57253,0,0,3.57253,177.746,48.0898)">
                    <path d="M57.835,43.661C57.467,44.807 56.081,45.385 54.735,44.956L54.329,44.826C52.985,44.395 52.19,43.12 52.557,41.973L58.996,21.846C59.362,20.7 60.751,20.121 62.094,20.55L62.501,20.681C63.846,21.111 64.639,22.388 64.273,23.534L57.835,43.661Z" style="fill:rgb(51,51,51);fill-rule:nonzero;"/>
                </g>
                <g transform="matrix(3.57253,0,0,3.57253,177.746,48.0898)">
                    <path d="M83.881,55.17C83.41,56.643 84.258,58.229 85.776,58.715L86.235,58.862C87.751,59.346 89.362,58.547 89.835,57.075L98.116,31.183C98.586,29.71 97.737,28.123 96.223,27.639L95.764,27.492C94.247,27.006 92.635,27.806 92.163,29.279L83.881,55.17Z" style="fill:rgb(51,51,51);fill-rule:nonzero;"/>
                </g>
                <g transform="matrix(3.57253,0,0,3.57253,177.746,48.0898)">
                    <path d="M90.756,54.193C90.389,55.338 91.182,56.615 92.528,57.045L92.934,57.175C94.28,57.606 95.667,57.027 96.034,55.881L102.472,35.754C102.839,34.608 102.044,33.331 100.7,32.901L100.294,32.77C98.948,32.34 97.561,32.92 97.194,34.066L90.756,54.193Z" style="fill:rgb(51,51,51);fill-rule:nonzero;"/>
                </g>
                <g transform="matrix(3.57253,0,0,3.57253,177.746,48.0898)">
                    <path d="M58.807,50.087C57.29,49.602 56.441,48.016 56.913,46.543L65.195,20.652C65.667,19.179 67.278,18.379 68.795,18.865L58.807,50.087Z" style="fill:rgb(77,78,78);fill-rule:nonzero;"/>
                </g>
                <g transform="matrix(3.57253,0,0,3.57253,177.746,48.0898)">
                    <path d="M54.329,44.826C52.985,44.395 52.19,43.12 52.557,41.973L58.996,21.846C59.362,20.7 60.751,20.121 62.094,20.55L54.329,44.826Z" style="fill:rgb(77,78,78);fill-rule:nonzero;"/>
                </g>
                <g transform="matrix(3.57253,0,0,3.57253,177.746,48.0898)">
                    <path d="M83.881,55.17C83.41,56.643 84.258,58.229 85.776,58.715L95.764,27.492C94.247,27.006 92.635,27.806 92.163,29.279L83.881,55.17Z" style="fill:rgb(77,78,78);fill-rule:nonzero;"/>
                </g>
                <g transform="matrix(3.57253,0,0,3.57253,177.746,48.0898)">
                    <path d="M90.756,54.193C90.389,55.338 91.182,56.615 92.528,57.045L100.294,32.77C98.948,32.34 97.561,32.92 97.194,34.066L90.756,54.193Z" style="fill:rgb(77,78,78);fill-rule:nonzero;"/>
                </g>
            </g>
            <g transform="matrix(1,0,0,1,-757.847,207.163)">
                <g transform="matrix(3.57253,0,0,3.57253,177.746,48.0898)">
                    <path d="M207.243,-3.721C206.153,-3.519 205.144,-3.228 204.234,-2.851C196.243,0.458 197.699,10.735 197.699,10.735C197.801,11.444 197.522,11.559 197.087,10.991C197.087,10.991 190.978,3.033 183.088,6.3C182.156,6.686 181.208,7.208 180.268,7.855C176.364,10.542 175.616,17.554 178.668,22.865C184.095,32.291 208.64,40.582 208.64,40.582C209.32,40.811 210.138,40.471 210.456,39.831C210.456,39.831 221.953,16.61 219.133,6.109C217.517,0.113 211.852,-4.575 207.243,-3.721Z" style="fill:rgb(193,38,45);fill-rule:nonzero;"/>
                </g>
                <g transform="matrix(3.57253,0,0,3.57253,177.746,48.0898)">
                    <path d="M207.557,29.507C206.974,29.747 206.328,29.553 206.018,29.049L200.714,20.5L202.052,26.55C202.173,27.103 201.882,27.666 201.34,27.923L201.276,27.952C200.747,28.17 200.16,28.036 199.816,27.612L196.691,23.766C196.677,24.25 196.368,24.691 195.895,24.887L185.13,29.344C184.485,29.611 183.755,29.332 183.502,28.722C183.249,28.113 183.569,27.401 184.215,27.133L194.134,23.027L193.971,20.073C193.942,19.556 194.261,19.067 194.769,18.857C195.317,18.642 195.894,18.782 196.23,19.195L198.432,21.908L196.646,13.823C196.518,13.249 196.846,12.66 197.418,12.422C198.005,12.183 198.651,12.376 198.966,12.878L204.29,21.463L203.158,16.3C203.046,15.778 203.299,15.245 203.79,14.967C203.838,14.943 203.887,14.92 203.933,14.902C204.397,14.709 204.925,14.795 205.276,15.117L207.741,17.385L218.481,12.938C219.126,12.671 219.855,12.947 220.108,13.558C220.36,14.166 220.04,14.88 219.396,15.147L207.892,19.911C207.427,20.103 206.897,20.018 206.545,19.695L206.477,19.63L208.336,28.111C208.459,28.681 208.133,29.269 207.561,29.505L207.557,29.507Z" style="fill:rgb(205,204,204);fill-rule:nonzero;"/>
                </g>
                <g transform="matrix(3.57253,0,0,3.57253,177.746,48.0898)">
                    <path d="M207.332,28.954C207.33,28.954 207.329,28.955 207.328,28.955C207.041,29.074 206.716,28.974 206.562,28.727L199.296,17.012L201.435,26.698C201.494,26.971 201.35,27.255 201.082,27.383C200.797,27.518 200.497,27.448 200.317,27.233L195.964,21.867L196.063,23.726C196.078,23.984 195.917,24.227 195.664,24.332L184.9,28.789C184.576,28.922 184.214,28.788 184.087,28.48C183.96,28.175 184.119,27.82 184.443,27.686L194.786,23.403L194.598,20.018C194.586,19.759 194.746,19.515 194.998,19.411C195.003,19.409 195.008,19.407 195.011,19.406C195.271,19.304 195.56,19.374 195.729,19.58L199.626,24.377L197.262,13.675C197.198,13.388 197.361,13.09 197.646,12.972C197.646,12.972 197.647,12.972 197.65,12.97C197.938,12.856 198.265,12.951 198.42,13.202L205.696,24.934L203.773,16.154C203.716,15.894 203.846,15.623 204.089,15.488C204.341,15.348 204.638,15.381 204.832,15.561L207.588,18.096L218.71,13.49C219.033,13.357 219.398,13.495 219.524,13.8C219.65,14.105 219.49,14.459 219.167,14.593L207.662,19.357C207.429,19.454 207.165,19.413 206.987,19.249L205.435,17.819L207.717,28.254C207.781,28.54 207.616,28.835 207.332,28.954Z" style="fill:white;fill-rule:nonzero;"/>
                </g>
            </g>
            <g transform="matrix(0.744355,0,0,1.14682,-21.3366,-19.2173)">
                <text x="345.169px" y="363.061px" style="font-family:'PRIMETIME-Regular', 'PRIMETIME';font-style:italic;font-size:121.369px;fill:rgb(11,166,0);">Se<tspan x="516.905px 605.505px 688.157px 769.231px 855.646px 894.484px 968.154px 1054.57px 1093.41px 1172.9px 1245px 1322.19px 1359.45px 1431.66px 1506.55px 1579.85px 1656.44px 1740.91px 1775.5px " y="363.061px 363.061px 363.061px 363.061px 363.061px 363.061px 363.061px 363.061px 363.061px 363.061px 363.061px 363.061px 363.061px 363.061px 363.061px 363.061px 363.061px 363.061px 363.061px ">mana da resistência</tspan></text>
            </g>
        </g>
    </g>
</svg>
